<svg xmlns="http://www.w3.org/2000/svg" width="1200" height="800" viewBox="0 0 1200 800" role="img" aria-labelledby="title desc">
  <title id="title">Eclipsa image test asset</title>
  <desc id="desc">A layered gradient card used for responsive image tests.</desc>
  <defs>
    <linearGradient id="bg" x1="0%" y1="0%" x2="100%" y2="100%">
      <stop offset="0%" stop-color="#0f766e" />
      <stop offset="55%" stop-color="#0f172a" />
      <stop offset="100%" stop-color="#f97316" />
    </linearGradient>
    <linearGradient id="panel" x1="0%" y1="0%" x2="100%" y2="0%">
      <stop offset="0%" stop-color="#f8fafc" stop-opacity="0.92" />
      <stop offset="100%" stop-color="#e2e8f0" stop-opacity="0.74" />
    </linearGradient>
  </defs>
  <rect width="1200" height="800" fill="url(#bg)" rx="36" />
  <circle cx="230" cy="190" r="110" fill="#facc15" fill-opacity="0.8" />
  <circle cx="1010" cy="640" r="140" fill="#38bdf8" fill-opacity="0.65" />
  <rect x="120" y="110" width="960" height="580" rx="42" fill="url(#panel)" />
  <rect x="180" y="200" width="360" height="30" rx="15" fill="#0f172a" fill-opacity="0.85" />
  <rect x="180" y="260" width="520" height="18" rx="9" fill="#334155" fill-opacity="0.75" />
  <rect x="180" y="304" width="470" height="18" rx="9" fill="#475569" fill-opacity="0.6" />
  <rect x="180" y="348" width="400" height="18" rx="9" fill="#64748b" fill-opacity="0.48" />
  <rect x="180" y="432" width="210" height="72" rx="24" fill="#ea580c" />
  <rect x="740" y="210" width="230" height="230" rx="32" fill="#0f172a" fill-opacity="0.9" />
  <rect x="774" y="244" width="162" height="162" rx="22" fill="#f8fafc" fill-opacity="0.96" />
  <rect x="740" y="486" width="250" height="28" rx="14" fill="#0f172a" fill-opacity="0.78" />
  <rect x="740" y="532" width="210" height="18" rx="9" fill="#334155" fill-opacity="0.55" />
</svg>

