<?xml version="1.0" encoding="UTF-8" standalone="no"?>
<svg
   version="1.0"
   width="500px"
   height="500px"
   viewBox="0 0 500 500"
   preserveAspectRatio="xMidYMid meet"
   id="svg23"
   sodipodi:docname="new-logo.svg"
   inkscape:version="1.3.2 (091e20e, 2023-11-25, custom)"
   xmlns:inkscape="http://www.inkscape.org/namespaces/inkscape"
   xmlns:sodipodi="http://sodipodi.sourceforge.net/DTD/sodipodi-0.dtd"
   xmlns="http://www.w3.org/2000/svg"
   xmlns:svg="http://www.w3.org/2000/svg">
  <defs
     id="defs23" />
  <sodipodi:namedview
     id="namedview23"
     pagecolor="#ffffff"
     bordercolor="#000000"
     borderopacity="0.25"
     inkscape:showpageshadow="2"
     inkscape:pageopacity="0.0"
     inkscape:pagecheckerboard="0"
     inkscape:deskcolor="#d1d1d1"
     inkscape:zoom="5.6568543"
     inkscape:cx="63.63961"
     inkscape:cy="186.5878"
     inkscape:window-width="1366"
     inkscape:window-height="745"
     inkscape:window-x="-8"
     inkscape:window-y="-8"
     inkscape:window-maximized="1"
     inkscape:current-layer="g113" />
  <g
     inkscape:groupmode="layer"
     id="layer2"
     inkscape:label="base"
     style="display:none">
    <path
       id="path1-6"
       style="display:inline;fill:#5900ae"
       d="m 249.5202,86.047373 c -0.6,0 -7.10001,3.098441 -14.5,6.898437 -28.49938,17.3125 -54.41567,23.1748 -115.30078,32.50003 -3,0.6 -4.79844,2.10039 -9.89844,8.40039 -8.19999,10.09999 -26.900019,28.5004 -38.000005,37.40039 l -11.738281,9.56445 c -12.8949,31.80995 -23.241475,65.55189 -34.462938,98.23628 -5.799994,12.79999 -5.899604,13.9 -1.099609,14 1.099999,0 8.800008,2.29961 17,5.09961 27.999972,9.39999 60.400023,29.69885 81.000003,50.79883 3.3,3.29999 6.79922,6.10156 7.69922,6.10156 108.26628,-24.75395 36.8559,-8.3611 46.78516,-10.6211 0.75593,-0.0962 1.38106,-0.13636 2.21484,-0.27929 8.40019,-1.34725 16.86612,-2.18068 25.30078,-3.30078 7.29999,-0.8 22.60002,-1.29922 45,-1.19922 28.59997,0.1 37.00002,0.39883 52.5,2.29883 21.39998,2.59999 59.54609,10.23008 61.74609,12.33008 0.55029,0.23925 1.00331,0.49372 1.55469,0.77151 1.2,0.5 2.69844,0.89844 3.39844,0.89844 0.6,0.1 5.10001,-3.79962 10,-8.59961 23.09998,-22.99998 56.50081,-42.79923 85.80078,-51.19922 9.69999,-2.7 13.89922,-4.40078 13.69922,-5.30078 -16.31479,-34.6748 -26.46279,-71.49362 -37.59961,-108 -59.05435,-48.26377 -51.40896,-55.48622 -61.29883,-57.40039 -13.68956,-1.07003 -27.30332,-2.91986 -40.80078,-5.5 -23.49997,-4.7 -48.30002,-13.70002 -73.5,-26.49999 -7.99999,-4.099996 -15,-7.398437 -15.5,-7.398437 z"
       sodipodi:nodetypes="ccccccccccccsccccccccccccccc" />
  </g>
  <g
     inkscape:groupmode="layer"
     id="layer1"
     inkscape:label="source"
     style="display:inline">
    <path
       d="m 186,341.5 c 0,-0.9 0.9,-1.5 2.5,-1.5 1.6,0 2.5,0.6 2.5,1.5 0,0.9 -0.9,1.5 -2.5,1.5 -1.6,0 -2.5,-0.6 -2.5,-1.5 z"
       id="path3"
       style="fill:#5900ae" />
    <path
       d="m 371,131.5 c 0,-2 0.5,-2.5 2.5,-2.5 2,0 2.5,0.5 2.5,2.5 0,2 -0.5,2.5 -2.5,2.5 -2,0 -2.5,-0.5 -2.5,-2.5 z"
       id="path4"
       style="fill:#5900ae" />
    <path
       d="m 363.7,354.3 c -2.2,-2.1 -40.3,-9.8 -61.7,-12.4 -15.5,-1.9 -23.9,-2.2 -52.5,-2.3 -22.4,-0.1 -37.7,0.4 -45,1.2 -6,0.8 -12.8,1.5 -15,1.8 -2.2,0.2 -6.8,0.9 -10.3,1.5 -3.5,0.6 -6.6,0.8 -6.9,0.5 -0.4,-0.3 0.5,-0.6 1.8,-0.6 1.3,0 3.1,-0.5 3.9,-1.1 1.1,-0.8 0.4,-0.9 -2.5,-0.3 -2.2,0.4 -7.7,0.8 -12.2,0.9 -5.6,0.2 -8.8,0.7 -10.4,1.9 -2.6,1.8 -11.9,2.2 -11.9,0.5 0,-0.5 -1.2,-1.4 -2.8,-2 -3,-1 -6.2,-5.8 -6.2,-9.4 0,-1.3 -0.5,-2.5 -1.1,-2.7 -1.2,-0.4 -1.3,-7.2 -0.4,-56.3 0.6,-33.1 0.9,-36.5 2.5,-36.5 0.6,0 1,5.9 1,15 0,10.2 0.4,15 1.1,15 0.6,0 2.1,0.8 3.4,1.8 1.9,1.5 3.3,1.7 8.1,1.1 8.7,-1.1 23.3,-1 27.9,0.1 2.2,0.6 14.1,1.5 26.5,2.1 25.1,1.1 35,2 46,4.3 4.1,0.9 14.3,2.1 22.5,2.6 15.1,1 26.5,2.3 36.2,4.1 4.1,0.8 5.8,0.7 8.1,-0.5 2.3,-1.2 4.7,-1.3 13.3,-0.6 5.7,0.5 13.8,1.4 18,2.1 9.2,1.4 20.9,0.5 20.9,-1.7 0,-2.3 1.9,-1.6 2.5,0.9 0.3,1.2 0.6,16.2 0.8,33.2 0.2,31 0.2,31 -2.5,33.6 -1.5,1.5 -2.9,2.5 -3.1,2.2 z"
       id="path5"
       style="fill:#8004c1" />
    <path
       d="m 140,352.5 c 0,-0.3 0.2,-0.5 0.5,-0.5 0.3,0 0.5,0.2 0.5,0.5 0,0.3 -0.2,0.5 -0.5,0.5 -0.3,0 -0.5,-0.2 -0.5,-0.5 z"
       id="path6"
       style="fill:#8004c1" />
    <path
       d="m 144,351.5 c 0,-0.3 0.2,-0.5 0.5,-0.5 0.3,0 0.5,0.2 0.5,0.5 0,0.3 -0.2,0.5 -0.5,0.5 -0.3,0 -0.5,-0.2 -0.5,-0.5 z"
       id="path7"
       style="fill:#8004c1" />
    <path
       d="m 152,349.5 c 0,-0.3 0.2,-0.5 0.5,-0.5 0.3,0 0.5,0.2 0.5,0.5 0,0.3 -0.2,0.5 -0.5,0.5 -0.3,0 -0.5,-0.2 -0.5,-0.5 z"
       id="path8"
       style="fill:#8004c1" />
    <path
       d="m 170,345.5 c 0,-0.3 0.2,-0.5 0.5,-0.5 0.3,0 0.5,0.2 0.5,0.5 0,0.3 -0.2,0.5 -0.5,0.5 -0.3,0 -0.5,-0.2 -0.5,-0.5 z"
       id="path9"
       style="fill:#8004c1" />
    <path
       d="m 365,251 c 0,-19.7 0.6,-25.1 2.3,-20.6 0.3,0.8 0.6,10.7 0.7,22 0,17.8 -0.2,20.6 -1.5,20.6 -1.3,0 -1.5,-3 -1.5,-22 z"
       id="path10"
       style="fill:#8004c1" />
    <path
       d="m 340.5,287.9 c -12.5,-2.4 -21.9,-2.7 -25.8,-0.8 -2.8,1.3 -6.9,0.9 -24.2,-2.1 -2.7,-0.5 -10.8,-1.2 -18,-1.5 -14.7,-0.7 -16.8,-1 -28,-3.2 -11.4,-2.3 -19.9,-3.1 -45.5,-4.2 -12.4,-0.6 -24.3,-1.5 -26.5,-2.1 -5.2,-1.3 -14,-1.3 -24.5,0.1 -7.8,0.9 -8.5,0.9 -11.2,-1.1 -1.6,-1.1 -3.3,-1.8 -3.8,-1.5 -1.1,0.7 -1.3,-106.6 -0.3,-109.2 1.4,-3.7 2.3,-0.2 2.3,8.8 0,10 0,10 10.4,3 5.7,-3.9 10.6,-7.1 10.9,-7.1 0.3,0 2.1,-1.4 3.9,-3 1.8,-1.7 4.5,-3.6 6.1,-4.3 1.5,-0.6 2.7,-1.5 2.7,-1.9 0,-0.5 1.1,-0.8 2.5,-0.8 2,0 2.5,0.5 2.5,2.5 0,1.4 -0.4,2.5 -0.9,2.5 -0.6,0 -2.4,1.3 -4.1,2.9 -1.8,1.6 -4.4,3.5 -5.8,4.2 -1.5,0.8 -3.1,1.9 -3.7,2.5 -0.5,0.6 -4.7,3.7 -9.3,6.9 -4.6,3.2 -8.2,5.9 -8,6 0.2,0.2 2.4,0 5.1,-0.5 5.3,-0.8 66.9,0.5 90.7,1.9 19.9,1.2 37.9,2.8 45.5,4.1 3.3,0.5 8.7,1 11.9,1 3.2,0 14,0.9 24,2 23.1,2.5 37.2,3.6 41.4,3.2 3.2,-0.3 3.2,-0.3 3.2,-21.3 0,-17.9 0.2,-20.9 1.5,-20.9 1.3,0 1.5,6.6 1.5,53.8 0,29.7 0.3,59.9 0.6,67.3 0.7,13.4 0.7,13.4 -10.7,13.6 -6.3,0.1 -13.6,-0.3 -16.4,-0.8 z"
       id="path16"
       style="fill:#a11bc9" />
    <path
       d="m 132.6,158.4 c -1.2,-3.2 -0.7,-8.4 0.9,-8.4 1.1,0 1.5,1.2 1.5,5 0,4.9 -1.2,6.6 -2.4,3.4 z"
       id="path17"
       style="fill:#a11bc9" />
    <path
       d="m 131.6,147.4 c -0.3,-0.9 -0.6,-2.2 -0.6,-2.9 0,-3.1 -4.4,-12.9 -7.2,-16.1 -3,-3.4 -3,-3.4 -0.4,-3.4 1.6,0 2.9,0.7 3.3,1.7 0.4,1 1.3,2.4 2,3.1 1.5,1.6 5.3,13.5 5.3,16.8 0,2.7 -1.5,3.2 -2.4,0.8 z"
       id="path18"
       style="fill:#a11bc9" />
    <path
       d="m 365,147.1 c 0,-4.1 1.3,-8.1 2.7,-8.1 1.4,0 1.3,2.4 -0.3,8.3 -0.7,2.3 -2.4,2.2 -2.4,-0.2 z"
       id="path19"
       style="fill:#a11bc9" />
    <path
       d="m 368,136.1 c 0,-3.3 1.1,-5.1 3.1,-5.1 1.8,0 1.8,0.2 0.2,3.5 -1.8,3.9 -3.3,4.6 -3.3,1.6 z"
       id="path20"
       style="fill:#a11bc9" />
    <path
       d="m 365.2,204 c -0.2,-5.6 -0.2,-5.6 -5.4,-5.6 -6.7,0 -26.3,-1.2 -30.8,-1.8 -12.6,-1.8 -20.9,-2.7 -29.6,-3.1 -9.1,-0.4 -12.6,-0.7 -22.4,-2.1 -15.7,-2.1 -54.4,-4.7 -75.5,-5 -8.2,-0.1 -23.8,-0.3 -34.5,-0.5 -14.7,-0.2 -20.1,0 -21.9,1 -1.7,0.9 -2.9,1 -4.5,0.3 -1.1,-0.6 -3.3,-1.3 -4.7,-1.6 -2.7,-0.6 -2.7,-0.6 -3.1,-19.8 -0.6,-21.5 -2.1,-28.8 -7.7,-36.6 -3,-4.1 -3,-4.1 2.7,-4.6 41.3,-4.2 70.3,-12.7 107.2,-31.7 7.4,-3.8 13.9,-6.9 14.5,-6.9 0.5,0 7.5,3.3 15.5,7.4 25.2,12.8 50,21.8 73.5,26.5 10.9,2.2 31.8,5.1 36.6,5.1 3.1,0 3.1,0 -0.5,4.2 -6.9,8 -7.8,13.1 -8.6,48.8 -0.3,17.3 -0.7,29 -0.8,26 z M 144,179.4 c 4.4,-3.1 8,-5.8 8,-6 0,-0.5 -14.7,9.1 -16.4,10.7 -2.9,2.6 1.5,0.2 8.4,-4.7 z m 14,-10.1 c 0,-0.7 -3.9,1.7 -4.6,2.8 -0.3,0.6 0.5,0.3 2,-0.6 1.4,-1 2.6,-1.9 2.6,-2.2 z m 3.5,-2.3 c 0.3,-0.5 0.4,-1 0.1,-1 -0.3,0 -0.8,0.5 -1.1,1 -0.3,0.6 -0.4,1 -0.1,1 0.3,0 0.8,-0.4 1.1,-1 z m 3.6,-2.7 c 1.3,-1.6 1.2,-1.7 -0.3,-0.4 -1,0.7 -1.8,1.5 -1.8,1.7 0,0.8 0.8,0.3 2.1,-1.3 z m 3.4,-2.3 c 0.3,-0.5 0.4,-1 0.1,-1 -0.3,0 -0.8,0.5 -1.1,1 -0.3,0.6 -0.4,1 -0.1,1 0.3,0 0.8,-0.4 1.1,-1 z m 3.5,-2.5 c 0,-0.3 -0.2,-0.5 -0.5,-0.5 -0.3,0 -0.5,0.2 -0.5,0.5 0,0.3 0.2,0.5 0.5,0.5 0.3,0 0.5,-0.2 0.5,-0.5 z"
       id="path21"
       style="fill:#cf3bd4" />
    <path
       d="m 133,192.5 c 0,-0.3 0.2,-0.5 0.5,-0.5 0.3,0 0.5,0.2 0.5,0.5 0,0.3 -0.2,0.5 -0.5,0.5 -0.3,0 -0.5,-0.2 -0.5,-0.5 z"
       id="path22"
       style="fill:#cf3bd4" />
    <path
       d="m 133.2,188.5 c 0,-1.6 0.2,-2.2 0.5,-1.2 0.2,0.9 0.2,2.3 0,3 -0.3,0.6 -0.5,-0.1 -0.5,-1.8 z"
       id="path23"
       style="fill:#cf3bd4" />
  </g>
  <g
     inkscape:groupmode="layer"
     id="g113"
     inkscape:label="source コピー"
     style="display:inline">
    <path
       d="m 186,341.5 c 0,-0.9 0.9,-1.5 2.5,-1.5 1.6,0 2.5,0.6 2.5,1.5 0,0.9 -0.9,1.5 -2.5,1.5 -1.6,0 -2.5,-0.6 -2.5,-1.5 z"
       id="path93"
       style="fill:#5900ae" />
    <path
       d="m 371,131.5 c 0,-2 0.5,-2.5 2.5,-2.5 2,0 2.5,0.5 2.5,2.5 0,2 -0.5,2.5 -2.5,2.5 -2,0 -2.5,-0.5 -2.5,-2.5 z"
       id="path94"
       style="fill:#5900ae" />
    <path
       d="m 363.7,354.3 c -2.2,-2.1 -40.3,-9.8 -61.7,-12.4 -15.5,-1.9 -23.9,-2.2 -52.5,-2.3 -22.4,-0.1 -37.7,0.4 -45,1.2 -6,0.8 -12.8,1.5 -15,1.8 -2.2,0.2 -6.8,0.9 -10.3,1.5 -3.5,0.6 -6.6,0.8 -6.9,0.5 -0.4,-0.3 0.5,-0.6 1.8,-0.6 1.3,0 3.1,-0.5 3.9,-1.1 1.1,-0.8 0.4,-0.9 -2.5,-0.3 -2.2,0.4 -7.7,0.8 -12.2,0.9 -5.6,0.2 -8.8,0.7 -10.4,1.9 -2.6,1.8 -11.9,2.2 -11.9,0.5 0,-0.5 -1.2,-1.4 -2.8,-2 -3,-1 -6.2,-5.8 -6.2,-9.4 0,-1.3 -0.5,-2.5 -1.1,-2.7 -1.2,-0.4 -1.3,-7.2 -0.4,-56.3 0.6,-33.1 0.9,-36.5 2.5,-36.5 0.6,0 1,5.9 1,15 0,10.2 0.4,15 1.1,15 0.6,0 2.1,0.8 3.4,1.8 1.9,1.5 3.3,1.7 8.1,1.1 8.7,-1.1 23.3,-1 27.9,0.1 2.2,0.6 14.1,1.5 26.5,2.1 25.1,1.1 35,2 46,4.3 4.1,0.9 14.3,2.1 22.5,2.6 15.1,1 26.5,2.3 36.2,4.1 4.1,0.8 5.8,0.7 8.1,-0.5 2.3,-1.2 4.7,-1.3 13.3,-0.6 5.7,0.5 13.8,1.4 18,2.1 9.2,1.4 20.9,0.5 20.9,-1.7 0,-2.3 1.9,-1.6 2.5,0.9 0.3,1.2 0.6,16.2 0.8,33.2 0.2,31 0.2,31 -2.5,33.6 -1.5,1.5 -2.9,2.5 -3.1,2.2 z"
       id="path95"
       style="fill:#8004c1" />
    <path
       d="m 140,352.5 c 0,-0.3 0.2,-0.5 0.5,-0.5 0.3,0 0.5,0.2 0.5,0.5 0,0.3 -0.2,0.5 -0.5,0.5 -0.3,0 -0.5,-0.2 -0.5,-0.5 z"
       id="path96"
       style="fill:#8004c1" />
    <path
       d="m 144,351.5 c 0,-0.3 0.2,-0.5 0.5,-0.5 0.3,0 0.5,0.2 0.5,0.5 0,0.3 -0.2,0.5 -0.5,0.5 -0.3,0 -0.5,-0.2 -0.5,-0.5 z"
       id="path97"
       style="fill:#8004c1" />
    <path
       d="m 152,349.5 c 0,-0.3 0.2,-0.5 0.5,-0.5 0.3,0 0.5,0.2 0.5,0.5 0,0.3 -0.2,0.5 -0.5,0.5 -0.3,0 -0.5,-0.2 -0.5,-0.5 z"
       id="path98"
       style="fill:#8004c1" />
    <path
       d="m 170,345.5 c 0,-0.3 0.2,-0.5 0.5,-0.5 0.3,0 0.5,0.2 0.5,0.5 0,0.3 -0.2,0.5 -0.5,0.5 -0.3,0 -0.5,-0.2 -0.5,-0.5 z"
       id="path99"
       style="fill:#8004c1" />
    <path
       d="m 365,251 c 0,-19.7 0.6,-25.1 2.3,-20.6 0.3,0.8 0.6,10.7 0.7,22 0,17.8 -0.2,20.6 -1.5,20.6 -1.3,0 -1.5,-3 -1.5,-22 z"
       id="path100"
       style="fill:#8004c1" />
    <path
       d="m 340.5,287.9 c -12.5,-2.4 -21.9,-2.7 -25.8,-0.8 -2.8,1.3 -6.9,0.9 -24.2,-2.1 -2.7,-0.5 -10.8,-1.2 -18,-1.5 -14.7,-0.7 -16.8,-1 -28,-3.2 -11.4,-2.3 -19.9,-3.1 -45.5,-4.2 -12.4,-0.6 -24.3,-1.5 -26.5,-2.1 -5.2,-1.3 -14,-1.3 -24.5,0.1 -7.8,0.9 -8.5,0.9 -11.2,-1.1 -1.6,-1.1 -3.3,-1.8 -3.8,-1.5 -1.1,0.7 -1.3,-106.6 -0.3,-109.2 1.4,-3.7 2.3,-0.2 2.3,8.8 0,10 0,10 10.4,3 5.7,-3.9 10.6,-7.1 10.9,-7.1 0.3,0 2.1,-1.4 3.9,-3 1.8,-1.7 4.5,-3.6 6.1,-4.3 1.5,-0.6 2.7,-1.5 2.7,-1.9 0,-0.5 1.1,-0.8 2.5,-0.8 2,0 2.5,0.5 2.5,2.5 0,1.4 -0.4,2.5 -0.9,2.5 -0.6,0 -2.4,1.3 -4.1,2.9 -1.8,1.6 -4.4,3.5 -5.8,4.2 -1.5,0.8 -3.1,1.9 -3.7,2.5 -0.5,0.6 -4.7,3.7 -9.3,6.9 -4.6,3.2 -8.2,5.9 -8,6 0.2,0.2 2.4,0 5.1,-0.5 5.3,-0.8 66.9,0.5 90.7,1.9 19.9,1.2 37.9,2.8 45.5,4.1 3.3,0.5 8.7,1 11.9,1 3.2,0 14,0.9 24,2 23.1,2.5 37.2,3.6 41.4,3.2 3.2,-0.3 3.2,-0.3 3.2,-21.3 0,-17.9 0.2,-20.9 1.5,-20.9 1.3,0 1.5,6.6 1.5,53.8 0,29.7 0.3,59.9 0.6,67.3 0.7,13.4 0.7,13.4 -10.7,13.6 -6.3,0.1 -13.6,-0.3 -16.4,-0.8 z"
       id="path106"
       style="fill:#a11bc9" />
    <path
       d="m 132.6,158.4 c -1.2,-3.2 -0.7,-8.4 0.9,-8.4 1.1,0 1.5,1.2 1.5,5 0,4.9 -1.2,6.6 -2.4,3.4 z"
       id="path107"
       style="fill:#a11bc9" />
    <path
       d="m 131.6,147.4 c -0.3,-0.9 -0.6,-2.2 -0.6,-2.9 0,-3.1 -4.4,-12.9 -7.2,-16.1 -3,-3.4 -3,-3.4 -0.4,-3.4 1.6,0 2.9,0.7 3.3,1.7 0.4,1 1.3,2.4 2,3.1 1.5,1.6 5.3,13.5 5.3,16.8 0,2.7 -1.5,3.2 -2.4,0.8 z"
       id="path108"
       style="fill:#a11bc9" />
    <path
       d="m 365,147.1 c 0,-4.1 1.3,-8.1 2.7,-8.1 1.4,0 1.3,2.4 -0.3,8.3 -0.7,2.3 -2.4,2.2 -2.4,-0.2 z"
       id="path109"
       style="fill:#a11bc9" />
    <path
       d="m 368,136.1 c 0,-3.3 1.1,-5.1 3.1,-5.1 1.8,0 1.8,0.2 0.2,3.5 -1.8,3.9 -3.3,4.6 -3.3,1.6 z"
       id="path110"
       style="fill:#a11bc9" />
    <path
       d="m 133,192.5 c 0,-0.3 0.2,-0.5 0.5,-0.5 0.3,0 0.5,0.2 0.5,0.5 0,0.3 -0.2,0.5 -0.5,0.5 -0.3,0 -0.5,-0.2 -0.5,-0.5 z"
       id="path112"
       style="fill:#cf3bd4" />
    <path
       d="m 133.2,188.5 c 0,-1.6 0.2,-2.2 0.5,-1.2 0.2,0.9 0.2,2.3 0,3 -0.3,0.6 -0.5,-0.1 -0.5,-1.8 z"
       id="path113"
       style="fill:#cf3bd4" />
    <path
       id="path70-0-3"
       style="display:inline;fill:#5900ae"
       d="m 375.56161,125.36609 c 3,0.6 4.79844,2.10042 9.89844,8.40039 17.32407,22.66835 33.17738,40.31693 54.18945,57.69532 6.32534,35.43122 15.84007,56.11436 30.01172,87.5039 5.79999,12.79999 5.8996,13.9 1.09961,14 -1.1,0 -8.80001,2.29961 -17,5.09961 -27.99998,9.39999 -60.40002,29.7008 -81,50.80078 -3.3,3.3 -6.79922,6.09961 -7.69922,6.09961 l -2.10156,-57.69922 c -1.21273,-45.80901 -1.53361,-91.62802 -1.85742,-137.44922 -0.63096,-14.16345 1.62207,-21.15441 7.45898,-33.15234 0.49067,-1.22667 1.74618,-2.23271 7,-1.29883 z"
       sodipodi:nodetypes="ccccccccccsc" />
    <path
       id="path70-0-3-1"
       style="display:inline;fill:#5900ae"
       d="m 121.63714,125.36609 c -3,0.6 -4.79844,2.10042 -9.89844,8.40039 -17.32407,22.66835 -33.17738,40.31693 -54.189449,57.69532 -6.32534,35.43122 -15.84007,56.11436 -30.01172,87.5039 -5.79999,12.79999 -5.8996,13.9 -1.09961,14 1.1,0 8.80001,2.29961 17,5.09961 27.999979,9.39999 60.400019,29.7008 80.999999,50.80078 3.3,3.3 6.79922,6.09961 7.69922,6.09961 l 2.10156,-57.69922 c 1.21273,-45.80901 1.53361,-91.62802 1.85742,-137.44922 0.63096,-14.16345 -1.62207,-21.15441 -7.45898,-33.15234 -0.49067,-1.22667 -1.74618,-2.23271 -7,-1.29883 z"
       sodipodi:nodetypes="ccccccccccsc"
       inkscape:transform-center-x="12"
       inkscape:transform-center-y="3" />
    <path
       d="m 365.2,204 c -0.2,-5.6 -0.2,-5.6 -5.4,-5.6 -6.7,0 -26.3,-1.2 -30.8,-1.8 -12.6,-1.8 -20.9,-2.7 -29.6,-3.1 -9.1,-0.4 -12.6,-0.7 -22.4,-2.1 -15.7,-2.1 -54.4,-4.7 -75.5,-5 -8.2,-0.1 -23.8,-0.3 -34.5,-0.5 -14.7,-0.2 -20.1,0 -21.9,1 -1.7,0.9 -2.9,1 -4.5,0.3 -1.1,-0.6 -100.36066,66.49289 -101.76066,66.19289 0,0 2.590674,-48.48514 18.76066,-61.29289 18.238073,-14.44582 60.7,-66 60.7,-66 41.3,-4.2 79.8,-14.2 116.7,-33.2 7.4,-3.8 13.9,-6.9 14.5,-6.9 0.5,0 7.5,3.3 15.5,7.4 25.2,12.8 50,21.8 73.5,26.5 10.9,2.2 31.8,5.1 36.6,5.1 3.1,0 3.1,0 -0.5,4.2 -6.9,8 -7.8,13.1 -8.6,48.8 -0.3,17.3 -0.7,29 -0.8,26 z M 158,169.3 c 0,-0.7 -3.9,1.7 -4.6,2.8 -0.3,0.6 0.5,0.3 2,-0.6 1.4,-1 2.6,-1.9 2.6,-2.2 z m 3.5,-2.3 c 0.3,-0.5 0.4,-1 0.1,-1 -0.3,0 -0.8,0.5 -1.1,1 -0.3,0.6 -0.4,1 -0.1,1 0.3,0 0.8,-0.4 1.1,-1 z m 3.6,-2.7 c 1.3,-1.6 1.2,-1.7 -0.3,-0.4 -1,0.7 -1.8,1.5 -1.8,1.7 0,0.8 0.8,0.3 2.1,-1.3 z m 3.4,-2.3 c 0.3,-0.5 0.4,-1 0.1,-1 -0.3,0 -0.8,0.5 -1.1,1 -0.3,0.6 -0.4,1 -0.1,1 0.3,0 0.8,-0.4 1.1,-1 z m 3.5,-2.5 c 0,-0.3 -0.2,-0.5 -0.5,-0.5 -0.3,0 -0.5,0.2 -0.5,0.5 0,0.3 0.2,0.5 0.5,0.5 0.3,0 0.5,-0.2 0.5,-0.5 z"
       id="path111"
       style="fill:#cf3bd4"
       sodipodi:nodetypes="csccccccccsccsccscccsccscscscscsscscscsssss" />
  </g>
  <g
     inkscape:groupmode="layer"
     id="g91"
     inkscape:label="side"
     style="display:none">
    <path
       id="path70"
       style="fill:#5900ae"
       d="m 119.69922,125.40039 c -3,0.6 -4.79844,2.10042 -9.89844,8.40039 C 92.476709,156.46913 76.623403,174.11771 55.611328,191.4961 49.285982,226.92732 39.771252,247.61046 25.599609,279 19.799615,291.79999 19.700005,292.9 24.5,293 c 1.099999,0 8.800008,2.29961 17,5.09961 27.999972,9.39999 60.40002,29.7008 81,50.80078 3.3,3.3 6.79922,6.09961 7.69922,6.09961 l 2.10156,-57.69922 c 1.21273,-45.80901 1.53361,-91.62802 1.85742,-137.44922 0.63096,-14.16345 -1.62207,-21.15441 -7.45898,-33.15234 -0.49067,-1.22667 -1.74618,-2.23271 -7,-1.29883 z"
       sodipodi:nodetypes="ccccccccccsc" />
    <path
       id="path70-0"
       style="display:inline;opacity:1;fill:#5900ae"
       d="m 379.48669,125.27478 c 3,0.6 4.79844,2.10042 9.89844,8.40039 17.32407,22.66835 33.17738,40.31693 54.18945,57.69532 6.32534,35.43122 15.84007,56.11436 30.01172,87.5039 5.79999,12.79999 5.8996,13.9 1.09961,14 -1.1,0 -8.80001,2.29961 -17,5.09961 -27.99998,9.39999 -60.40002,29.7008 -81,50.80078 -3.3,3.3 -6.79922,6.09961 -7.69922,6.09961 l -2.10156,-57.69922 c -1.21273,-45.80901 -1.53361,-91.62802 -1.85742,-137.44922 -0.63096,-14.16345 1.62207,-21.15441 7.45898,-33.15234 0.49067,-1.22667 1.74618,-2.23271 7,-1.29883 z"
       sodipodi:nodetypes="ccccccccccsc" />
  </g>
</svg>
