<?xml version="1.0" encoding="UTF-8" standalone="no"?>
<!-- Created with Inkscape (http://www.inkscape.org/) -->

<svg
   width="120mm"
   height="28mm"
   viewBox="0 0 120 28"
   version="1.1"
   id="svg1"
   xml:space="preserve"
   inkscape:version="1.3.2 (091e20e, 2023-11-25, custom)"
   sodipodi:docname="描画.svg"
   xmlns:inkscape="http://www.inkscape.org/namespaces/inkscape"
   xmlns:sodipodi="http://sodipodi.sourceforge.net/DTD/sodipodi-0.dtd"
   xmlns:xlink="http://www.w3.org/1999/xlink"
   xmlns="http://www.w3.org/2000/svg"
   xmlns:svg="http://www.w3.org/2000/svg"><sodipodi:namedview
     id="namedview1"
     pagecolor="#ffffff"
     bordercolor="#000000"
     borderopacity="0.25"
     inkscape:showpageshadow="2"
     inkscape:pageopacity="0.0"
     inkscape:pagecheckerboard="0"
     inkscape:deskcolor="#d1d1d1"
     inkscape:document-units="mm"
     inkscape:zoom="0.97815657"
     inkscape:cx="181.46379"
     inkscape:cy="8.6898154"
     inkscape:window-width="1366"
     inkscape:window-height="745"
     inkscape:window-x="-8"
     inkscape:window-y="-8"
     inkscape:window-maximized="1"
     inkscape:current-layer="g1" /><defs
     id="defs1"><linearGradient
       id="linearGradient2"
       inkscape:collect="always"><stop
         style="stop-color:#e34eda;stop-opacity:1;"
         offset="0"
         id="stop2" /><stop
         style="stop-color:#010a7b;stop-opacity:1;"
         offset="1"
         id="stop3" /></linearGradient><linearGradient
       inkscape:collect="always"
       xlink:href="#linearGradient2"
       id="linearGradient3"
       x1="249.51953"
       y1="86.046875"
       x2="254.51955"
       y2="339.64648"
       gradientUnits="userSpaceOnUse"
       gradientTransform="translate(0.48045657,29.482695)" /></defs><g
     inkscape:label="Layer 1"
     inkscape:groupmode="layer"
     id="layer1"><g
       id="g1"
       transform="matrix(0.08164094,0,0,0.08164094,94.56094,142.85618)"><g
         id="layer2"
         inkscape:label="base"
         style="display:inline"
         transform="translate(-182.22535,-1828.328)"><path
           id="path1-6"
           style="display:inline;opacity:1;fill:#fb4ad9;fill-opacity:1"
           d="m 249.99999,115.52957 c -0.6,0 -7.10002,3.09844 -14.5,6.89844 -28.49935,17.31248 -54.41573,23.17477 -115.30078,32.49999 -3,0.6 -4.79844,2.1004 -9.89844,8.40039 -8.19998,10.09998 -26.900026,28.50041 -38.000001,37.40039 l -11.738281,9.56446 c -12.894887,31.80992 -23.241439,65.55197 -34.46289,98.23633 -5.799989,12.79997 -5.8996,13.9 -1.09961,14 1.099998,0 8.800016,2.29961 17,5.0996 27.999944,9.39998 60.400042,29.69887 81.000002,50.79883 3.3,3.29999 6.79922,6.10157 7.69922,6.10157 108.26617,-24.75393 36.85591,-8.3611 46.78516,-10.6211 0.75593,-0.0962 1.38106,-0.13637 2.21484,-0.2793 5.92468,-0.95021 11.88185,-1.65708 17.83789,-2.37695 L 197.5,371.428 c 15.49997,-1.9 23.90006,-2.19883 52.5,-2.29883 28.59994,0.1 37.00004,0.39883 52.5,2.29883 l -0.0371,-0.17578 c 5.95642,0.71992 11.91284,1.42668 17.83789,2.37695 0.83378,0.14293 1.45892,0.1831 2.21485,0.2793 9.92925,2.26 -61.48102,-14.13283 46.78515,10.6211 0.9,0 4.39922,-2.80158 7.69922,-6.10157 20.59996,-21.09996 53.00006,-41.39885 81,-50.79883 8.19998,-2.79999 15.9,-5.0996 17,-5.0996 4.8,-0.1 4.70039,-1.20003 -1.09961,-14 -11.22145,-32.68436 -21.568,-66.42641 -34.46289,-98.23633 l -11.73828,-9.56446 c -11.09997,-8.89998 -29.80002,-27.30041 -38,-37.40039 -5.09999,-6.29999 -6.89844,-7.80039 -9.89844,-8.40039 -60.88505,-9.32522 -86.80143,-15.18752 -115.30078,-32.49999 -7.39998,-3.8 -13.9,-6.89844 -14.5,-6.89844 z" /></g><g
         id="layer3"
         inkscape:label="forward"
         style="display:inline"
         transform="translate(-182.22535,-1828.328)"><path
           id="path1-6-4"
           style="display:inline;opacity:0.5;fill:url(#linearGradient3);fill-opacity:1"
           d="m 249.99999,115.52957 c -0.42035,-0.91374 -6.75867,8.83175 -14.99023,24.2539 -52.05874,66.70543 -170.569823,96.05005 -208.910162,168.7461 -5.799989,12.79995 -5.899595,13.9 -1.09961,14 1.099994,0 8.800018,2.29962 17,5.0996 27.999912,9.39998 60.400062,29.69889 81.000002,50.79883 3.3,3.29999 6.79922,6.10156 7.69922,6.10157 108.26606,-24.75391 36.85592,-8.3611 46.78516,-10.6211 0.75593,-0.0962 1.38106,-0.13637 2.21484,-0.2793 5.92467,-0.9502 11.88186,-1.65708 17.83789,-2.37695 L 197.5,371.428 c 15.49996,-1.9 23.90009,-2.19883 52.5,-2.29883 28.59991,0.1 37.00005,0.39883 52.5,2.29883 l -0.0371,-0.17578 c 5.95604,0.71987 11.91322,1.42675 17.83789,2.37695 0.83378,0.14293 1.45892,0.1831 2.21485,0.2793 9.92924,2.26 -61.48091,-14.13281 46.78515,10.6211 0.9,-10e-6 4.39922,-2.80158 7.69922,-6.10157 20.59994,-21.09994 53.00009,-41.39885 81,-50.79883 8.19998,-2.79998 15.9,-5.0996 17,-5.0996 4.79999,-0.1 4.70039,-1.20005 -1.09961,-14 -38.34035,-72.69605 -156.85144,-102.04068 -208.91017,-168.7461 -8.23156,-15.42215 -14.56989,-25.16763 -14.99024,-24.2539 z" /></g><g
         id="g91"
         inkscape:label="side"
         style="display:inline"
         transform="translate(-182.22535,-1828.328)"><path
           id="path1-6-2"
           style="display:inline;opacity:0.5;fill:#010a7b;fill-opacity:1"
           d="m 120.19921,154.928 c -3,0.6 -4.79844,2.10041 -9.89844,8.40039 -8.19997,10.09997 -26.900037,28.50042 -38.000001,37.40039 l -11.738281,9.56446 c -12.894874,31.80989 -23.241451,65.552 -34.46289,98.23633 -5.799984,12.79995 -5.899595,13.9 -1.09961,14 1.099997,0 8.800024,2.29962 17,5.0996 27.999916,9.39998 60.400062,29.69888 81.000002,50.79883 3.3,3.29998 6.79922,6.10157 7.69922,6.10157 0,0 -0.55503,-139.61701 -2.77773,-210.1643 -0.1925,-6.10972 -7.72227,-19.43727 -7.72227,-19.43727 z"
           sodipodi:nodetypes="cccccccccsc" /><path
           id="path1-6-2-7"
           style="display:inline;opacity:0.5;fill:#010a7b;fill-opacity:1"
           d="m 379.80077,154.928 c 3,0.6 4.79844,2.10041 9.89844,8.40039 8.19997,10.09997 26.90003,28.50042 38,37.40039 l 11.73828,9.56446 c 12.89487,31.80989 23.24145,65.552 34.46289,98.23633 5.79998,12.79995 5.89959,13.9 1.09961,14 -1.1,0 -8.80002,2.29962 -17,5.0996 -27.99992,9.39998 -60.40006,29.69888 -81,50.79883 -3.3,3.29998 -6.79922,6.10157 -7.69922,6.10157 0,0 0.55503,-139.61701 2.77773,-210.1643 0.1925,-6.10972 7.72227,-19.43727 7.72227,-19.43727 z"
           sodipodi:nodetypes="cccccccccsc" /></g></g><path
       d="m 54.285944,18.021662 0.740833,-0.3175 a 2.3897167,2.3897167 0 0 0 0.520435,0.8419 3.2821562,3.2821562 0 0 0 0.465138,0.40825 5.7046812,5.7046812 0 0 0 1.436952,0.75539 6.5307104,6.5307104 0 0 0 0.229923,0.078 6.5383833,6.5383833 0 0 0 0.963083,0.2323 5.1260375,5.1260375 0 0 0 0.803011,0.0653 5.172075,5.172075 0 0 0 1.645443,-0.2585 4.8598667,4.8598667 0 0 0 0.286015,-0.1053 4.098925,4.098925 0 0 0 0.858837,-0.46672 3.3739667,3.3739667 0 0 0 0.596371,-0.54531 q 0.555625,-0.64823 0.555625,-1.50813 0,-0.89958 -0.575468,-1.42213 a 3.8168792,3.8168792 0 0 0 -0.704586,-0.50112 q -0.35216,-0.19712 -0.777081,-0.35216 a 40.495273,40.495273 0 0 0 -1.641475,-0.55854 44.351575,44.351575 0 0 0 -0.243681,-0.0765 q -1.164696,-0.36459 -2.061898,-0.69823 a 25.120071,25.120071 0 0 1 -0.524404,-0.20135 5.7131479,5.7131479 0 0 1 -0.723636,-0.34449 q -0.548481,-0.31327 -0.896937,-0.70723 -0.555625,-0.62839 -0.555625,-1.726409 a 3.1379583,3.1379583 0 0 1 0.225689,-1.2006803 2.9535437,2.9535437 0 0 1 0.448998,-0.75062 4.2634958,4.2634958 0 0 1 1.367102,-1.09458 5.172075,5.172075 0 0 1 0.392377,-0.18203 q 1.084792,-0.4497904 2.328334,-0.4497904 a 6.4047687,6.4047687 0 0 1 1.929341,0.2831 5.7187042,5.7187042 0 0 1 1.053836,0.4511104 q 1.329531,0.73422 1.805781,1.88516 l -0.687917,0.39688 a 2.7148896,2.7148896 0 0 0 -0.765175,-1.06178 3.3112604,3.3112604 0 0 0 -0.167481,-0.13546 4.8252062,4.8252062 0 0 0 -1.332442,-0.70671 5.5144458,5.5144458 0 0 0 -0.162454,-0.054 5.5647167,5.5647167 0 0 0 -1.595173,-0.26406 5.2543604,5.2543604 0 0 0 -0.07832,-5.2e-4 5.4998937,5.4998937 0 0 0 -1.518709,0.20558 5.0310521,5.0310521 0 0 0 -0.432593,0.14499 3.978275,3.978275 0 0 0 -0.858044,0.45244 3.2654875,3.2654875 0 0 0 -0.603779,0.54636 q -0.555625,0.64823 -0.555625,1.5345803 0,0.912819 0.469635,1.395679 a 2.5725438,2.5725438 0 0 0 0.490802,0.38841 q 0.366713,0.22754 0.865188,0.39873 a 66.893017,66.893017 0 0 0 0.71702,0.2413 q 0.320411,0.10583 0.676805,0.22092 a 130.05885,130.05885 0 0 0 0.7493,0.23892 34.802762,34.802762 0 0 1 1.489868,0.51171 29.25789,29.25789 0 0 1 0.83185,0.32173 6.2147979,6.2147979 0 0 1 0.892969,0.44318 4.5016208,4.5016208 0 0 1 0.853281,0.66145 q 0.668073,0.66808 0.668073,1.7661 a 3.1705021,3.1705021 0 0 1 -0.217223,1.18586 2.9575125,2.9575125 0 0 1 -0.45085,0.76544 4.206875,4.206875 0 0 1 -1.360487,1.09458 5.1387375,5.1387375 0 0 1 -0.392377,0.18204 q -1.084792,0.44979 -2.315104,0.44979 -1.137709,0 -2.215886,-0.38365 a 6.6489792,6.6489792 0 0 1 -1.236398,-0.58288 5.6655229,5.6655229 0 0 1 -0.635529,-0.44899 3.9938854,3.9938854 0 0 1 -0.57785,-0.57283 2.8918958,2.8918958 0 0 1 -0.493712,-0.86915 z m -13.81125,-0.47625 v 9.68375 h -0.79375 V 7.3854127 h 0.79375 v 3.0956203 q 0.714375,-1.5478103 2.096823,-2.4937003 1.382447,-0.9458804 3.300677,-0.9458804 a 6.75005,6.75005 0 0 1 2.620168,0.5090604 6.5487021,6.5487021 0 0 1 0.07858,0.0333 q 1.25677,0.5424 2.215885,1.50152 0.959115,0.9591103 1.50151,2.2158793 a 6.7344396,6.7344396 0 0 1 0.542396,2.68737 7.6811187,7.6811187 0 0 1 0,0.0114 q 0,1.44198 -0.542396,2.71198 -0.542395,1.27 -1.50151,2.22912 -0.959115,0.95911 -2.215885,1.50151 a 6.7344396,6.7344396 0 0 1 -2.687373,0.54239 7.6811187,7.6811187 0 0 1 -0.01138,0 6.5193333,6.5193333 0 0 1 -1.680369,-0.20796 5.222875,5.222875 0 0 1 -1.620308,-0.73792 q -1.382443,-0.94589 -2.096818,-2.4937 z M 16.159485,14.396872 H 3.7505298 a 6.7526958,6.7526958 0 0 0 0.46725,2.0193 6.1290729,6.1290729 0 0 0 0.47863,0.93741 q 0.8136,1.30308 2.0836,2.05714 1.269996,0.75406 2.79135,0.75406 1.6933332,0 3.0427092,-0.89958 a 6.1481229,6.1481229 0 0 0 1.881716,-2.00766 7.4736854,7.4736854 0 0 0 0.261409,-0.47942 l 0.79375,0.1852 q -0.79375,1.75948 -2.39448,2.87735 -1.60073,1.11786 -3.5851042,1.11786 -1.825625,0 -3.32714,-0.93927 -1.50151,-0.93927 -2.39447,-2.52016 a 6.9654208,6.9654208 0 0 1 -0.89191,-3.37952 8.1740375,8.1740375 0 0 1 -10e-4,-0.11959 7.2450854,7.2450854 0 0 1 0.34078,-2.23811 6.76275,6.76275 0 0 1 0.17515,-0.48048 q 0.51594,-1.263389 1.42214,-2.2224993 0.9062,-0.95912 2.11005,-1.50151 1.203856,-0.5424004 2.56646,-0.5424004 a 6.6092917,6.6092917 0 0 1 1.8351492,0.24871 5.9353979,5.9353979 0 0 1 0.770997,0.2804604 q 1.190625,0.52916 2.076979,1.50812 a 6.8500625,6.8500625 0 0 1 1.182688,1.8396493 8.0655583,8.0655583 0 0 1 0.19976,0.4953 8.51535,8.51535 0 0 1 0.448998,1.90791 10.566929,10.566929 0 0 1 0.07355,1.10173 z m 12.514792,3.41312 0.687917,0.37042 q -0.886355,1.27 -2.268802,2.02406 -1.382448,0.75406 -2.996407,0.75406 -1.825625,0 -3.327135,-0.93927 -1.501511,-0.93927 -2.394479,-2.52016 a 6.9654208,6.9654208 0 0 1 -0.891911,-3.37952 8.1740375,8.1740375 0 0 1 -0.0011,-0.11959 7.2450854,7.2450854 0 0 1 0.340783,-2.23811 6.76275,6.76275 0 0 1 0.175154,-0.48048 q 0.51598,-1.263389 1.422178,-2.2224993 0.906198,-0.95912 2.110052,-1.50151 1.203854,-0.5424004 2.566458,-0.5424004 1.613959,0 2.996407,0.7540604 1.382447,0.75407 2.268802,2.02407 L 28.674277,10.163533 Q 27.82761,9.0258227 26.597298,8.4172827 q -1.230313,-0.60854 -2.500313,-0.60854 -1.640416,0 -2.956718,0.84667 -1.316303,0.84666 -2.090209,2.2555693 -0.773906,1.40891 -0.773906,3.08901 0,1.70656 0.787135,3.10224 0.787136,1.39568 2.110052,2.22911 1.322917,0.83344 2.923646,0.83344 1.389063,0 2.599532,-0.66146 a 6.1931021,6.1931021 0 0 0 1.539081,-1.17131 5.7120896,5.7120896 0 0 0 0.438679,-0.52202 z m 49.37125,-7.355419 V 7.3854127 h 0.79375 V 20.614572 h -0.79375 v -3.09562 q -0.714375,1.54781 -2.090208,2.4937 a 5.3334708,5.3334708 0 0 1 -2.264569,0.871 7.0299792,7.0299792 0 0 1 -1.042723,0.0749 6.75005,6.75005 0 0 1 -2.619904,-0.50905 6.5487021,6.5487021 0 0 1 -0.07885,-0.0333 q -1.256767,-0.5424 -2.215881,-1.50151 -0.959115,-0.95912 -1.501511,-2.21589 a 6.7344396,6.7344396 0 0 1 -0.542396,-2.68737 7.6811187,7.6811187 0 0 1 0,-0.0114 6.8823417,6.8823417 0 0 1 0.415396,-2.39977 6.55955,6.55955 0 0 1 0.127,-0.31883 q 0.542396,-1.263379 1.501511,-2.2224893 0.959114,-0.95912 2.215885,-1.50151 a 6.7344396,6.7344396 0 0 1 2.687637,-0.5424004 7.6811187,7.6811187 0 0 1 0.01111,0 6.5836271,6.5836271 0 0 1 1.662642,0.20108 5.1816,5.1816 0 0 1 1.64465,0.7448104 q 1.375836,0.94588 2.090211,2.4936903 z M 32.537194,20.614572 h -0.79375 V 0.77082233 h 0.79375 z m 40.110833,-0.44979 a 5.8195104,5.8195104 0 0 0 1.41896,-0.16536 4.4831,4.4831 0 0 0 1.484842,-0.66808 5.2564771,5.2564771 0 0 0 1.817952,-2.23308 6.4259354,6.4259354 0 0 0 0.0011,-0.003 q 0.621771,-1.40229 0.621771,-3.09562 0,-1.73303 -0.635,-3.13532 a 5.4316312,5.4316312 0 0 0 -1.219506,-1.7338593 5.1890083,5.1890083 0 0 0 -0.612775,-0.4953 4.6286208,4.6286208 0 0 0 -1.970352,-0.76147 6.0867396,6.0867396 0 0 0 -0.906992,-0.0653 q -1.706563,0 -3.108854,0.83344 -1.402292,0.83344 -2.229115,2.2423393 -0.826823,1.40891 -0.826823,3.11547 a 6.0417604,6.0417604 0 0 0 0.422011,2.27039 5.7396062,5.7396062 0 0 0 0.431271,0.85831 q 0.853281,1.39568 2.255572,2.21588 1.402292,0.82021 3.055938,0.82021 z M 45.872194,7.8352027 a 5.7015062,5.7015062 0 0 0 -1.446213,0.17568 4.4995042,4.4995042 0 0 0 -1.431131,0.65114 5.30225,5.30225 0 0 0 -1.812131,2.1791093 6.2650687,6.2650687 0 0 0 -0.02011,0.0434 7.1082958,7.1082958 0 0 0 -0.594518,2.26933 8.7013521,8.7013521 0 0 0 -0.04048,0.84614 8.0250771,8.0250771 0 0 0 0.255323,2.0529 7.0373875,7.0373875 0 0 0 0.366448,1.04934 5.3882396,5.3882396 0 0 0 1.289579,1.82404 5.2268437,5.2268437 0 0 0 0.529432,0.42492 4.5823187,4.5823187 0 0 0 1.935427,0.76596 6.1126687,6.1126687 0 0 0 0.968375,0.0741 q 1.653645,0 3.055937,-0.8202 1.402292,-0.82021 2.255573,-2.2225 a 5.9012667,5.9012667 0 0 0 0.851429,-2.98556 7.0506167,7.0506167 0 0 0 0.0019,-0.16299 q 0,-1.69333 -0.826823,-3.09562 -0.826872,-1.4022893 -2.229163,-2.2357193 -1.402292,-0.83344 -3.108854,-0.83344 z M 3.7505298,13.603122 H 15.365735 q -0.05292,-1.54782 -0.846666,-2.87073 -0.79375,-1.3229193 -2.090209,-2.1232893 -1.296459,-0.80036 -2.8575002,-0.80036 a 5.4448604,5.4448604 0 0 0 -2.2569,0.46699 5.3019854,5.3019854 0 0 0 -0.59399,0.31353 q -1.27661,0.78052 -2.07036,2.0968193 -0.79375,1.31631 -0.89958,2.91704 z m 31.9616642,7.01145 V 7.3854127 h 0.79375 V 20.614572 Z M 36.122298,4.6072823 q -0.251354,0 -0.429948,-0.16536 a 0.54054375,0.54054375 0 0 1 -0.178065,-0.39344 0.69082708,0.69082708 0 0 1 -5.29e-4,-0.0233 0.63394167,0.63394167 0 0 1 0.02858,-0.19394 0.51011667,0.51011667 0 0 1 0.150019,-0.22939 0.62335833,0.62335833 0 0 1 0.422275,-0.15875 0.79110417,0.79110417 0 0 1 0.0077,0 q 0.238125,0 0.410104,0.15875 a 0.52652083,0.52652083 0 0 1 0.17145,0.37914 0.71040625,0.71040625 0 0 1 5.29e-4,0.031 0.66278125,0.66278125 0 0 1 -0.02937,0.20214 0.53869167,0.53869167 0 0 1 -0.14261,0.22781 q -0.171979,0.16536 -0.410104,0.16536 z"
       vector-effect="non-scaling-stroke"
       id="path1"
       style="font-size:12px;fill:#000000;fill-rule:evenodd;stroke:#000000;stroke-width:0.0661458mm;stroke-linecap:round" /></g></svg>
